<svg width="30" height="20" viewBox="0 0 30 20" fill="none" xmlns="http://www.w3.org/2000/svg">
<path d="M27.4997 3.1251H18.7498V0.625122H27.4997V3.1251ZM29.6572 15.625C29.1047 17.2462 27.121 19.3749 23.281 19.3749C19.4385 19.3749 16.3261 17.2137 16.3261 12.2812C16.3261 7.3938 19.2323 4.88133 23.1585 4.88133C27.011 4.88133 29.3634 7.1088 29.8772 10.4138C29.9747 11.0463 30.0134 11.8988 29.9959 13.0887H19.9623C20.1248 17.1024 24.316 17.2287 25.6972 15.625H29.6572ZM20.0498 10.625H26.256C26.1247 8.69129 24.836 7.8513 23.1597 7.8513C21.3273 7.8513 20.3135 8.81129 20.0498 10.625ZM8.08241 19.3599H0V0.651372H8.69116C15.5361 0.752621 15.6661 7.4563 12.0911 9.28378C16.4173 10.8588 16.5623 19.3599 8.08241 19.3599ZM3.74996 8.12504H8.22991C11.3649 8.12504 11.8624 4.37508 7.83991 4.37508H3.74996V8.12504ZM7.98866 11.875H3.74996V15.645H7.92616C11.7449 15.645 11.5111 11.875 7.98866 11.875Z" fill="black"/>
</svg>
