<svg width="25" height="25" viewBox="0 0 25 25" fill="none" xmlns="http://www.w3.org/2000/svg">
<path d="M3.125 0C1.39911 0 0 1.39911 0 3.125V21.875C0 23.6009 1.39911 25 3.125 25H21.875C23.6009 25 25 23.6009 25 21.875V3.125C25 1.39911 23.6009 0 21.875 0H3.125ZM18.7974 7.76511C19.2494 8.21714 19.255 8.94659 18.814 9.40543L12.5762 17.2027C12.5672 17.214 12.5576 17.2247 12.5474 17.2349C12.0897 17.6925 11.3477 17.6925 10.8901 17.2349L6.75502 13.0998C6.29738 12.6422 6.29738 11.9002 6.75502 11.4425C7.21267 10.9849 7.95466 10.9849 8.41231 11.4425L11.6834 14.7137L17.109 7.80016C17.1187 7.78787 17.129 7.77616 17.1401 7.76511C17.5977 7.30746 18.3397 7.30746 18.7974 7.76511Z" fill="#16C60D"/>
</svg>
