<svg width="40" height="40" viewBox="0 0 40 40" fill="none" xmlns="http://www.w3.org/2000/svg">
<circle cx="20" cy="20" r="20" fill="white"/>
<path d="M24.1464 12.1464C24.3417 11.9512 24.6583 11.9512 24.8536 12.1464L27.8536 15.1464C28.0488 15.3417 28.0488 15.6583 27.8536 15.8536L17.8536 25.8536C17.8057 25.9014 17.7486 25.9391 17.6857 25.9642L12.6857 27.9642C12.5 28.0385 12.2879 27.995 12.1464 27.8536C12.005 27.7121 11.9615 27.5 12.0358 27.3143L14.0358 22.3143C14.0609 22.2514 14.0986 22.1943 14.1464 22.1464L24.1464 12.1464ZM23.2071 14.5L25.5 16.7929L26.7929 15.5L24.5 13.2071L23.2071 14.5ZM24.7929 17.5L22.5 15.2071L16 21.7071V22H16.5C16.7761 22 17 22.2239 17 22.5V23H17.5C17.7761 23 18 23.2239 18 23.5V24H18.2929L24.7929 17.5ZM15.0317 22.6755L14.9261 22.781L13.3975 26.6025L17.219 25.0739L17.3245 24.9683C17.1349 24.8973 17 24.7144 17 24.5V24H16.5C16.2239 24 16 23.7761 16 23.5V23H15.5C15.2856 23 15.1027 22.865 15.0317 22.6755Z" fill="#2563EA"/>
</svg>
