<svg width="30" height="30" viewBox="0 0 30 30" fill="none" xmlns="http://www.w3.org/2000/svg">
<path d="M15.0017 1.25504e-06C6.71322 -0.00335032 0 6.70651 0 14.9883C0 21.5373 4.19953 27.1042 10.048 29.1487C10.8357 29.3464 10.715 28.7867 10.715 28.4046V25.8072C6.16691 26.3401 5.98257 23.3303 5.67758 22.8276C5.06089 21.7752 3.60295 21.5071 4.03866 21.0044C5.07429 20.4714 6.13004 21.1384 7.35337 22.9449C8.23819 24.2554 9.96425 24.0342 10.839 23.8163C11.0301 23.0287 11.4389 22.3249 12.002 21.7786C7.28969 20.934 5.32566 18.0583 5.32566 14.6397C5.32566 12.9807 5.87197 11.4557 6.94448 10.2257C6.26075 8.19796 7.00816 6.46185 7.1087 6.20377C9.05597 6.02949 11.0803 7.59803 11.2379 7.72204C12.3439 7.42375 13.6074 7.26623 15.0218 7.26623C16.4429 7.26623 17.7098 7.43045 18.8258 7.7321C19.2046 7.44386 21.0814 6.09652 22.8913 6.26075C22.9885 6.51882 23.7191 8.21472 23.0756 10.2156C24.1615 11.449 24.7146 12.9874 24.7146 14.6498C24.7146 18.0751 22.7371 20.9541 18.0114 21.7853C18.4162 22.1833 18.7376 22.6581 18.9568 23.1817C19.1761 23.7054 19.2888 24.2675 19.2883 24.8352V28.6057C19.3152 28.9074 19.2883 29.2057 19.7911 29.2057C25.7267 27.2048 30 21.5976 30 14.9916C30 6.70651 23.2834 1.25504e-06 15.0017 1.25504e-06Z" fill="black"/>
</svg>
