<svg xmlns="http://www.w3.org/2000/svg" viewBox="0 0 430 430">
  <defs>
    <style>
      .cls-1 {
        isolation: isolate;
      }

      .cls-2, .cls-3 {
        fill: #ffffff;
      }

      .cls-3 {
        mix-blend-mode: multiply;
        opacity: 0.5;
      }

      .cls-4 {
        fill: #4bb3fd;
      }

      .cls-5 {
        fill: #ffffff;
      }
    </style>
  </defs>
  <g class="cls-1">
    <g id="Warstwa_1" data-name="Warstwa 1">
      <g>
        <g>
          <path class="cls-2" d="M410,215c0,107.72-87.32,195-195,195S20,322.72,20,215,107.28,20,215,20,410,107.28,410,215Z"/>
          <path class="cls-3" d="M263.88,388.84c-107.72,0-195-87.32-195-195A194.93,194.93,0,0,1,162.59,27.09C80.33,50,20,125.44,20,215c0,107.72,87.32,195,195,195a194.09,194.09,0,0,0,101.29-28.33A195.27,195.27,0,0,1,263.88,388.84Z"/>
        </g>
        <path class="cls-4" d="M336.68,228.25A13.25,13.25,0,1,1,349.93,215a13.25,13.25,0,0,1-13.25,13.25Z"/>
        <path class="cls-4" d="M215,228.25A13.25,13.25,0,1,1,228.25,215,13.25,13.25,0,0,1,215,228.25Z"/>
        <path class="cls-4" d="M93.32,228.25A13.25,13.25,0,1,1,106.57,215a13.25,13.25,0,0,1-13.25,13.25Z"/>
        <path class="cls-5" d="M215,413.54C105.52,413.54,16.46,324.48,16.46,215S105.52,16.46,215,16.46,413.54,105.52,413.54,215,324.48,413.54,215,413.54Zm0-390.08C109.38,23.46,23.46,109.38,23.46,215S109.38,406.54,215,406.54,406.54,320.62,406.54,215,320.62,23.46,215,23.46Z"/>
      </g>
    </g>
  </g>
</svg>
