<svg width="25" height="25" viewBox="0 0 25 25" fill="none" xmlns="http://www.w3.org/2000/svg">
<path d="M0.00207346 8.58744C-0.0281371 9.12729 0.273968 9.63036 0.765217 9.85628L10.6217 14.3774L15.1428 24.2325C15.3582 24.7002 15.8258 24.9983 16.3368 24.9983L16.4116 24.9957C16.6753 24.9809 16.9283 24.8871 17.1378 24.7263C17.3473 24.5656 17.5034 24.3454 17.5859 24.0946L24.935 1.72308C25.0886 1.25285 24.9652 0.734014 24.6158 0.383309C24.2664 0.0326043 23.7489 -0.0869243 23.276 0.0641283L0.903135 7.41448C0.652232 7.49642 0.431943 7.65226 0.27115 7.86157C0.110358 8.07088 0.0165666 8.32389 0.00207346 8.58744Z" fill="black"/>
</svg>
